<svg xmlns="http://www.w3.org/2000/svg" width="48" height="48" viewBox="0 0 48 48">
    <g fill="none" fill-rule="evenodd" transform="translate(12 8)">
        <path fill="#3F938B" d="M5.333 1h13.334C20.507 1 22 2.79 22 5v12.966c0 1.103-.745 1.998-1.664 2l-16.667.03c-.878.003-1.6-.812-1.664-1.847L2 17.997V5c0-2.21 1.492-4 3.333-4z"/>
        <path fill="#67D0C6" d="M5.333 0h13.334c1.785 0 3.242 1.684 3.329 3.8L22 4H2c0-2.21 1.492-4 3.333-4zM9.33 13.006l5.414.016c1.926.005 3.575 1.383 3.923 3.277l1.465 7.978c.4 2.173-1.038 4.258-3.211 4.657-.238.044-.48.066-.723.066H7.82c-2.21 0-4-1.79-4-4 0-.247.022-.494.068-.737l1.499-7.994C5.742 14.373 7.4 13 9.33 13.006z"/>
        <rect width="7" height="11" x="9" y="21" fill="#222" rx="3.5"/>
        <path fill="#5B5B5B" d="M23 13c.552 0 1 .448 1 1s-.448 1-1 1h-2c0 .552-.448 1-1 1h-7c-.182 0-.353-.049-.5-.134-.146.085-.317.134-.5.134H4c-.552 0-1-.448-1-1H1c-.552 0-1-.448-1-1s.448-1 1-1h2c.183 0 .354.049.501.134C3.647 13.05 3.818 13 4 13h8c.183 0 .354.049.501.134.146-.085.317-.134.499-.134h10z"/>
        <circle cx="12" cy="14" r="5" fill="#222"/>
        <circle cx="12" cy="14" r="4" fill="#F7CB4E"/>
    </g>
</svg>
