<svg xmlns="http://www.w3.org/2000/svg" xmlns:xlink="http://www.w3.org/1999/xlink" width="48" height="48" viewBox="0 0 48 48">
    <defs>
        <rect id="prefix__a" width="40" height="34" x="0" y="0" rx="2"/>
    </defs>
    <g fill="none" fill-rule="evenodd">
        <g transform="translate(4 9)">
            <mask id="prefix__b" fill="#fff">
                <use xlink:href="#prefix__a"/>
            </mask>
            <use fill="#2962FF" xlink:href="#prefix__a"/>
            <path fill="#FFF" d="M0 0L40 0 40 7 0 7z" mask="url(#prefix__b)"/>
        </g>
        <rect width="3" height="8" x="35" y="5" fill="#2962FF" rx="1.5"/>
        <rect width="3" height="8" x="10" y="5" fill="#2962FF" rx="1.5"/>
        <path fill="#FFF" d="M17.625 29h13.75c.345 0 .625.336.625.75s-.28.75-.625.75h-13.75c-.345 0-.625-.336-.625-.75s.28-.75.625-.75z"/>
        <path fill="#FFF" fill-rule="nonzero" d="M30.691 23.455c.149-.381.55-.557.896-.394.307.145.468.51.396.856l-.038.129-4.091 10.5c-.234.6-.984.595-1.233.048l-.046-.125-2.075-7.473-2.075 7.473c-.173.624-.92.71-1.221.196l-.058-.12-4.09-10.5c-.149-.38.011-.821.357-.984.308-.145.659-.022.837.275l.059.119 3.355 8.614 2.184-7.861c.183-.66.99-.705 1.256-.132l.048.132 2.183 7.861 3.356-8.614z"/>
    </g>
</svg>
